<?xml version="1.0" encoding="UTF-8"?>
<svg id="Layer_2" data-name="Layer 2" xmlns="http://www.w3.org/2000/svg" viewBox="0 0 71.94 71.94">
  <defs>
    <style>
      .cls-1 {
        fill: #fff;
      }
    </style>
  </defs>
  <g id="Objects">
    <g>
      <g>
        <path class="cls-1" d="m55.09,23.9c-1.22.55-2.61.89-3.94,1.11.63-.11,1.53-1.24,1.9-1.7.56-.7,1.02-1.5,1.29-2.36.03-.07.05-.15-.01-.2-.08-.03-.14-.02-.21.02-1.47.79-3,1.36-4.62,1.77-.13.03-.23,0-.32-.08-.13-.15-.26-.3-.4-.41-.68-.58-1.41-1.04-2.24-1.37-1.08-.44-2.27-.63-3.44-.55-1.14.07-2.25.39-3.26.92-1.01.53-1.91,1.26-2.63,2.15-.74.92-1.29,2-1.57,3.15-.27,1.11-.25,2.2-.08,3.32.02.19,0,.21-.16.19-6.35-.95-11.62-3.22-15.89-8.09-.19-.21-.29-.21-.44.02-1.87,2.8-.96,7.31,1.37,9.52.31.3.63.59.98.86-.13.03-1.68-.14-3.07-.86-.19-.12-.28-.05-.3.16-.02.3,0,.58.05.91.36,2.84,2.33,5.47,5.02,6.5.32.13.67.25,1.02.31-.61.14-1.25.23-3.01.09-.22-.04-.3.07-.22.28,1.32,3.61,4.18,4.68,6.32,5.29.29.05.57.05.86.12-.02.03-.03.03-.05.05-.71,1.08-3.17,1.89-4.31,2.29-2.08.73-4.35,1.06-6.55.84-.35-.05-.43-.05-.52,0-.1.06-.01.14.1.24.45.3.9.56,1.36.81,1.4.74,2.86,1.33,4.38,1.75,7.87,2.17,16.74.58,22.65-5.3,4.64-4.61,6.27-10.97,6.27-17.34,0-.25.29-.39.47-.52,1.21-.91,2.25-1.99,3.15-3.21.2-.27.28-.51.28-.61v-.03c0-.1-.07-.07-.23,0Z"/>
        <path class="cls-1" d="m29.33,50.34c-2.17,0-4.33-.29-6.43-.87-.23-.06-.45-.13-.68-.2.68-.15,1.35-.34,2-.57l.2-.07c1.92-.67,3.86-1.42,4.78-2.68.06-.07.11-.14.16-.21.26-.41.3-.92.12-1.37s-.57-.78-1.04-.89c-.23-.05-.46-.08-.69-.1-.06,0-.13-.01-.19-.02-1.5-.43-3.12-1.04-4.27-2.56.51-.03.87-.11,1.18-.17.7-.15,1.2-.78,1.18-1.5-.02-.72-.54-1.32-1.25-1.44-.19-.03-.43-.11-.69-.22-1.79-.68-3.2-2.22-3.82-4.04.67.16,1.22.22,1.49.22.1,0,.24-.01.33-.03.57-.12,1.03-.56,1.16-1.12.13-.57-.07-1.17-.54-1.53-.31-.24-.59-.5-.87-.77-1.4-1.33-2.25-3.93-1.79-6.07,3.98,3.92,8.95,6.22,15.49,7.2.07.01.23.02.31.02.47,0,.89-.19,1.19-.53.32-.36.44-.82.37-1.36-.16-1.09-.14-1.96.05-2.77.22-.92.67-1.8,1.28-2.56.58-.72,1.33-1.33,2.16-1.76.83-.43,1.75-.69,2.66-.75.14,0,.27-.01.41-.01.81,0,1.62.16,2.36.46.66.27,1.26.64,1.83,1.12.1.08.17.17.25.26.02.03.05.05.07.07.35.34.8.53,1.28.53.12,0,.35-.03.47-.06.09-.02.17-.04.26-.07-.35.33-.54.83-.45,1.34.12.7.7,1.2,1.37,1.25-.02.01-.04.03-.06.05-.29.2-1.07.71-1.07,1.72,0,6.96-1.96,12.44-5.83,16.28-3.76,3.73-9,5.79-14.76,5.79h0Z"/>
      </g>
      <path class="cls-1" d="m35.97,71.94C16.14,71.94,0,55.8,0,35.97S16.14,0,35.97,0s35.97,16.14,35.97,35.97-16.14,35.97-35.97,35.97Zm0-70.13C17.13,1.8,1.8,17.13,1.8,35.97s15.33,34.17,34.17,34.17,34.17-15.33,34.17-34.17S54.81,1.8,35.97,1.8Z"/>
    </g>
  </g>
</svg>