<?xml version="1.0" encoding="UTF-8"?>
<svg id="Layer_2" data-name="Layer 2" xmlns="http://www.w3.org/2000/svg" viewBox="0 0 71.94 71.94">
  <defs>
    <style>
      .cls-1 {
        fill: #fff;
      }
    </style>
  </defs>
  <g id="Objects">
    <g>
      <g>
        <path class="cls-1" d="m48.46,25.63c0,1.24-1,2.24-2.24,2.24s-2.24-1-2.24-2.24,1.01-2.24,2.24-2.24,2.24,1,2.24,2.24Zm-2.79,10.06c0,5.2-4.23,9.43-9.43,9.43s-9.43-4.23-9.43-9.43,4.23-9.43,9.43-9.43,9.43,4.23,9.43,9.43Zm-3.39,0c0-3.33-2.71-6.04-6.04-6.04s-6.04,2.71-6.04,6.04,2.71,6.04,6.04,6.04,6.04-2.71,6.04-6.04Zm13.04-7.57c0-6.35-5.15-11.5-11.5-11.5h-15.69c-6.35,0-11.5,5.15-11.5,11.5v15.69c0,6.35,5.15,11.5,11.5,11.5h15.69c6.35,0,11.5-5.15,11.5-11.5v-15.69Zm-3.78,15.52c0,4.36-3.54,7.9-7.9,7.9h-15.35c-4.36,0-7.9-3.54-7.9-7.9v-15.35c0-4.36,3.54-7.9,7.9-7.9h15.35c4.36,0,7.9,3.54,7.9,7.9v15.35Z"/>
        <path class="cls-1" d="m28.12,53.82c-5.51,0-10-4.49-10-10v-15.69c0-5.51,4.49-10,10-10h15.69c5.51,0,10,4.49,10,10v15.69c0,5.51-4.49,10-10,10h-15.69Zm.17-34.92c-5.18,0-9.4,4.22-9.4,9.4v15.35c0,5.18,4.22,9.4,9.4,9.4h15.35c5.18,0,9.4-4.22,9.4-9.4v-15.35c0-5.18-4.22-9.4-9.4-9.4h-15.35Zm7.94,24.73c-4.37,0-7.93-3.56-7.93-7.93s3.56-7.93,7.93-7.93,7.93,3.56,7.93,7.93-3.56,7.93-7.93,7.93Zm0-15.47c-4.16,0-7.54,3.38-7.54,7.54s3.38,7.54,7.54,7.54,7.54-3.38,7.54-7.54-3.38-7.54-7.54-7.54Zm9.98-1.78c-.41,0-.75-.33-.75-.75s.33-.74.75-.74.74.33.74.74-.33.75-.74.75Z"/>
      </g>
      <path class="cls-1" d="m35.97,71.94C16.14,71.94,0,55.8,0,35.97S16.14,0,35.97,0s35.97,16.14,35.97,35.97-16.14,35.97-35.97,35.97Zm0-70.13C17.13,1.81,1.8,17.13,1.8,35.97s15.33,34.17,34.17,34.17,34.16-15.33,34.16-34.17S54.81,1.81,35.97,1.81Z"/>
    </g>
  </g>
</svg>