<?xml version="1.0" encoding="UTF-8"?>
<svg id="Layer_2" data-name="Layer 2" xmlns="http://www.w3.org/2000/svg" viewBox="0 0 71.94 71.94">
  <defs>
    <style>
      .cls-1, .cls-2 {
        fill: #fff;
      }

      .cls-2 {
        fill-rule: evenodd;
      }
    </style>
  </defs>
  <g id="Objects">
    <g>
      <g>
        <path class="cls-2" d="m31.04,36.12v18.33c0,.26.21.48.48.48h6.81c.26,0,.48-.21.48-.48v-18.63h4.94c.25,0,.45-.19.48-.44l.47-5.61c.02-.28-.2-.52-.48-.52h-5.41v-3.98c0-.93.76-1.69,1.69-1.69h3.8c.26,0,.48-.21.48-.48v-5.61c0-.26-.21-.48-.48-.48h-6.43c-3.77,0-6.83,3.06-6.83,6.83v5.41h-3.4c-.26,0-.48.21-.48.48v5.61c0,.26.21.48.48.48h3.4v.3Z"/>
        <path class="cls-2" d="m32.54,53.43v-17.61c0-.83-.67-1.5-1.5-1.5h-2.38v-3.57h2.38c.83,0,1.5-.67,1.5-1.5v-5.41c0-2.94,2.39-5.33,5.33-5.33h5.41v3.57h-2.78c-1.76,0-3.19,1.43-3.19,3.19v3.98c0,.83.67,1.5,1.5,1.5h4.3l-.3,3.57h-4c-.83,0-1.5.67-1.5,1.5v17.61h-4.76Z"/>
      </g>
      <path class="cls-1" d="m35.97,71.94C16.14,71.94,0,55.8,0,35.97S16.14,0,35.97,0s35.97,16.14,35.97,35.97-16.14,35.97-35.97,35.97Zm0-70.13C17.13,1.81,1.8,17.13,1.8,35.97s15.33,34.16,34.17,34.16,34.16-15.33,34.16-34.16S54.81,1.81,35.97,1.81Z"/>
    </g>
  </g>
</svg>